<?xml version="1.0" encoding="UTF-8"?>
<svg xmlns="http://www.w3.org/2000/svg" xmlns:xlink="http://www.w3.org/1999/xlink" width="24pt" height="24pt" viewBox="0 0 24 24" version="1.1">
<defs>
<linearGradient id="linear0" gradientUnits="userSpaceOnUse" x1="0" y1="256" x2="512" y2="256" gradientTransform="matrix(0.046875,0,0,0.046875,0,0)">
<stop offset="0" style="stop-color:rgb(52.941176%,94.509804%,98.823529%);stop-opacity:1;"/>
<stop offset="0.2557" style="stop-color:rgb(49.803922%,83.137255%,98.431373%);stop-opacity:1;"/>
<stop offset="0.5295" style="stop-color:rgb(47.058824%,73.72549%,98.431373%);stop-opacity:1;"/>
<stop offset="0.7844" style="stop-color:rgb(45.490196%,68.235294%,98.039216%);stop-opacity:1;"/>
<stop offset="1" style="stop-color:rgb(45.098039%,66.27451%,98.039216%);stop-opacity:1;"/>
</linearGradient>
</defs>
<g id="surface1">
<path style=" stroke:none;fill-rule:nonzero;fill:url(#linear0);" d="M 16.507812 7.503906 C 12.597656 3.519531 5.589844 6.367188 5.625 12.011719 C 5.625 15.523438 8.488281 18.386719 12 18.386719 C 17.644531 18.421875 20.492188 11.414062 16.507812 7.503906 Z M 9.460938 13.222656 L 8.226562 14.460938 C 7.269531 13.074219 7.269531 10.949219 8.226562 9.5625 L 9.460938 10.800781 C 9.097656 11.523438 9.097656 12.5 9.460938 13.222656 Z M 12 16.511719 C 11.097656 16.511719 10.257812 16.246094 9.550781 15.785156 L 10.789062 14.550781 C 11.511719 14.914062 12.488281 14.914062 13.210938 14.550781 L 14.449219 15.785156 C 13.742188 16.246094 12.902344 16.511719 12 16.511719 Z M 11.0625 12.011719 C 11.09375 10.777344 12.90625 10.777344 12.9375 12.011719 C 12.90625 13.246094 11.09375 13.246094 11.0625 12.011719 Z M 13.210938 9.472656 C 12.488281 9.109375 11.511719 9.109375 10.789062 9.472656 L 9.550781 8.238281 C 10.9375 7.28125 13.0625 7.28125 14.449219 8.238281 Z M 15.773438 14.460938 L 14.539062 13.222656 C 14.902344 12.5 14.902344 11.523438 14.539062 10.800781 L 15.773438 9.5625 C 16.730469 10.949219 16.730469 13.074219 15.773438 14.460938 Z M 22.082031 12.9375 C 22.019531 13.636719 21.882812 14.324219 21.675781 14.996094 L 22.582031 15.371094 C 23.707031 15.875 23.015625 17.550781 21.855469 17.101562 C 21.859375 17.101562 20.128906 16.378906 20.128906 16.378906 C 19.652344 16.179688 19.425781 15.632812 19.625 15.15625 C 21.90625 9.839844 17.789062 3.675781 12 3.75 C 6.207031 3.671875 2.085938 9.863281 4.382812 15.167969 C 6.554688 20.53125 13.769531 21.992188 17.832031 17.832031 C 18.203125 17.464844 18.796875 17.46875 19.160156 17.832031 C 19.160156 17.832031 20.484375 19.160156 20.484375 19.160156 C 21.335938 20.050781 20.058594 21.339844 19.160156 20.484375 C 19.160156 20.484375 18.464844 19.792969 18.464844 19.792969 C 17.925781 20.242188 17.34375 20.632812 16.730469 20.957031 L 17.101562 21.859375 C 17.367188 22.460938 16.886719 23.167969 16.238281 23.15625 C 15.398438 23.15625 15.28125 22.277344 14.996094 21.675781 C 14.332031 21.882812 13.640625 22.019531 12.9375 22.082031 L 12.9375 23.0625 C 12.9375 23.582031 12.519531 24 12 24 C 11.480469 24 11.0625 23.582031 11.0625 23.0625 L 11.0625 22.082031 C 10.359375 22.019531 9.667969 21.882812 9.003906 21.675781 C 8.71875 22.277344 8.601562 23.15625 7.761719 23.15625 C 7.113281 23.167969 6.632812 22.460938 6.898438 21.859375 C 6.898438 21.859375 7.269531 20.957031 7.269531 20.957031 C 6.65625 20.632812 6.074219 20.242188 5.535156 19.792969 L 4.839844 20.484375 C 4.472656 20.851562 3.882812 20.851562 3.515625 20.484375 C 3.148438 20.121094 3.148438 19.527344 3.515625 19.160156 L 4.207031 18.464844 C 3.757812 17.925781 3.367188 17.34375 3.042969 16.730469 C 2.785156 16.8125 2.050781 17.203125 1.78125 17.175781 C 0.765625 17.164062 0.476562 15.78125 1.421875 15.371094 C 1.421875 15.371094 2.324219 14.996094 2.324219 14.996094 C 2.117188 14.332031 1.980469 13.640625 1.917969 12.9375 L 0.9375 12.9375 C 0.417969 12.9375 0 12.519531 0 12 C 0 11.480469 0.417969 11.0625 0.9375 11.0625 L 1.917969 11.0625 C 1.980469 10.359375 2.117188 9.667969 2.324219 9.003906 L 1.421875 8.628906 C 0.292969 8.105469 0.972656 6.464844 2.140625 6.898438 L 3.042969 7.269531 C 3.367188 6.65625 3.757812 6.074219 4.207031 5.535156 L 3.515625 4.839844 C 3.148438 4.472656 3.148438 3.878906 3.515625 3.515625 C 3.878906 3.148438 4.472656 3.148438 4.839844 3.515625 L 5.535156 4.207031 C 6.074219 3.757812 6.65625 3.367188 7.269531 3.042969 L 6.894531 2.140625 C 6.699219 1.664062 6.925781 1.113281 7.402344 0.914062 C 7.882812 0.71875 8.429688 0.945312 8.628906 1.421875 L 9.003906 2.324219 C 9.667969 2.117188 10.359375 1.980469 11.0625 1.917969 L 11.0625 0.9375 C 11.0625 0.417969 11.480469 0 12 0 C 12.519531 0 12.9375 0.417969 12.9375 0.9375 L 12.9375 1.917969 C 13.640625 1.980469 14.332031 2.117188 14.996094 2.324219 L 15.371094 1.421875 C 15.570312 0.945312 16.117188 0.71875 16.597656 0.914062 C 17.074219 1.113281 17.300781 1.664062 17.101562 2.140625 L 16.730469 3.042969 C 17.34375 3.367188 17.925781 3.757812 18.464844 4.207031 L 19.160156 3.515625 C 19.527344 3.148438 20.117188 3.148438 20.484375 3.515625 C 20.851562 3.878906 20.851562 4.472656 20.484375 4.839844 L 19.792969 5.535156 C 20.242188 6.074219 20.632812 6.65625 20.957031 7.269531 L 21.859375 6.898438 C 22.335938 6.699219 22.886719 6.925781 23.085938 7.402344 C 23.28125 7.882812 23.054688 8.429688 22.578125 8.628906 L 21.675781 9.003906 C 21.882812 9.667969 22.019531 10.359375 22.082031 11.0625 L 23.0625 11.0625 C 23.582031 11.0625 24 11.480469 24 12 C 24 12.519531 23.582031 12.9375 23.0625 12.9375 Z M 22.082031 12.9375 "/>
</g>
</svg>
