<?xml version="1.0" encoding="UTF-8"?>
<svg xmlns="http://www.w3.org/2000/svg" xmlns:xlink="http://www.w3.org/1999/xlink" width="24pt" height="24pt" viewBox="0 0 24 24" version="1.1">
<g id="surface1">
<path style=" stroke:none;fill-rule:nonzero;fill:rgb(81.176471%,84.705882%,86.27451%);fill-opacity:1;" d="M 19 5 C 19 4.449219 18.550781 4 18 4 C 17.449219 4 17 4.449219 17 5 L 17 9 L 10.5 9 L 10.5 6 C 10.5 5.449219 10.050781 5 9.5 5 C 8.949219 5 8.5 5.449219 8.5 6 L 8.5 9 L 2 9 L 2 4.75 C 2 4.199219 1.550781 3.75 1 3.75 C 0.449219 3.75 0 4.199219 0 4.75 L 0 18.5 C 0 19.878906 1.121094 21 2.5 21 L 16 21 C 17.652344 21 19 19.652344 19 18 Z M 17 11 L 17 14 L 10.5 14 L 10.5 11 Z M 8.5 11 L 8.5 14 L 2 14 L 2 11 Z M 2 18.5 L 2 16 L 8.5 16 L 8.5 19 L 2.5 19 C 2.222656 19 2 18.777344 2 18.5 Z M 16 19 L 10.5 19 L 10.5 16 L 17 16 L 17 18 C 17 18.550781 16.550781 19 16 19 Z M 16 19 "/>
<path style=" stroke:none;fill-rule:nonzero;fill:rgb(12.941176%,58.823529%,95.294118%);fill-opacity:1;" d="M 16.75 0 L 2.25 0 C 1.007812 0 0 1.007812 0 2.25 L 0 6 L 19 6 L 19 2.25 C 19 1.007812 17.992188 0 16.75 0 Z M 16.75 0 "/>
<path style=" stroke:none;fill-rule:nonzero;fill:rgb(69.019608%,74.509804%,77.254902%);fill-opacity:1;" d="M 2.5 19 C 2.222656 19 2 18.777344 2 18.5 L 2 16 L 8.5 16 L 8.5 19 Z M 2 14 L 2 11 L 8.5 11 L 8.5 14 Z M 0 4.75 L 0 18.5 C 0 19.878906 1.121094 21 2.5 21 L 9.535156 21 L 9.535156 6 L 8.5 6 L 8.5 9 L 2 9 L 2 6 L 0 6 Z M 0 4.75 "/>
<path style=" stroke:none;fill-rule:nonzero;fill:rgb(11.764706%,53.333333%,89.803922%);fill-opacity:1;" d="M 9.535156 0 L 2.25 0 C 1.007812 0 0 1.007812 0 2.25 L 0 6 L 9.535156 6 Z M 9.535156 0 "/>
<path style=" stroke:none;fill-rule:nonzero;fill:rgb(56.470588%,79.215686%,97.647059%);fill-opacity:1;" d="M 24 11.800781 C 24 12.339844 23.789062 12.839844 23.410156 13.21875 L 20.941406 15.691406 L 16.699219 11.449219 L 19.171875 8.96875 C 19.929688 8.21875 21.238281 8.21875 22 8.96875 L 23.410156 10.390625 C 23.789062 10.769531 24 11.269531 24 11.800781 Z M 24 11.800781 "/>
<path style=" stroke:none;fill-rule:nonzero;fill:rgb(12.941176%,58.823529%,95.294118%);fill-opacity:1;" d="M 20.941406 15.691406 L 13.871094 22.761719 L 13.628906 22.898438 L 9 23.988281 L 8.890625 24 C 8.761719 24 8.628906 23.949219 8.539062 23.851562 C 8.410156 23.730469 8.359375 23.550781 8.398438 23.390625 L 9.488281 18.761719 C 9.511719 18.671875 9.558594 18.589844 9.628906 18.519531 L 16.699219 11.449219 Z M 20.941406 15.691406 "/>
<path style=" stroke:none;fill-rule:nonzero;fill:rgb(49.019608%,69.019608%,85.098039%);fill-opacity:1;" d="M 20.585938 8.40625 C 20.066406 8.40625 19.550781 8.597656 19.171875 8.972656 L 16.699219 11.449219 L 18.820312 13.570312 L 22.707031 9.683594 L 22 8.96875 C 21.621094 8.59375 21.101562 8.40625 20.585938 8.40625 Z M 20.585938 8.40625 "/>
<path style=" stroke:none;fill-rule:nonzero;fill:rgb(11.764706%,53.333333%,89.803922%);fill-opacity:1;" d="M 16.699219 11.449219 L 9.628906 18.519531 C 9.558594 18.589844 9.511719 18.671875 9.488281 18.761719 L 8.398438 23.390625 C 8.359375 23.550781 8.410156 23.730469 8.539062 23.851562 L 18.820312 13.570312 Z M 16.699219 11.449219 "/>
</g>
</svg>
