<?xml version="1.0" encoding="UTF-8"?>
<svg xmlns="http://www.w3.org/2000/svg" xmlns:xlink="http://www.w3.org/1999/xlink" width="24pt" height="24pt" viewBox="0 0 24 24" version="1.1">
<g id="surface1">
<path style=" stroke:none;fill-rule:nonzero;fill:rgb(10.588235%,73.72549%,52.54902%);fill-opacity:1;" d="M 23.867188 17.617188 L 16.320312 11.671875 C 16.09375 11.496094 15.761719 11.65625 15.761719 11.945312 L 15.761719 15.894531 L 7.171875 15.894531 C 5.097656 15.894531 2.976562 15.320312 1.40625 13.960938 C 1.160156 13.746094 0.78125 13.964844 0.84375 14.28125 C 0.949219 14.847656 1.167969 15.703125 1.597656 16.550781 C 2.699219 18.722656 4.574219 19.824219 7.171875 19.824219 L 15.695312 19.824219 L 15.695312 23.597656 C 15.695312 23.730469 15.769531 23.847656 15.886719 23.90625 C 16 23.964844 16.140625 23.953125 16.246094 23.875 L 23.863281 18.164062 C 23.949219 18.097656 24 18 24 17.890625 C 24 17.785156 23.953125 17.683594 23.867188 17.617188 Z M 23.867188 17.617188 "/>
<path style=" stroke:none;fill-rule:nonzero;fill:rgb(7.843137%,57.647059%,38.431373%);fill-opacity:1;" d="M 23.867188 17.617188 L 22.882812 16.84375 C 15.710938 22.222656 16.203125 21.886719 16.039062 21.886719 C 15.851562 21.886719 15.695312 21.734375 15.695312 21.542969 L 15.695312 23.597656 C 15.695312 23.730469 15.769531 23.847656 15.886719 23.90625 C 16 23.964844 16.140625 23.953125 16.246094 23.875 L 23.863281 18.164062 C 23.949219 18.097656 24 18 24 17.890625 C 24 17.785156 23.953125 17.683594 23.867188 17.617188 Z M 23.867188 17.617188 "/>
<path style=" stroke:none;fill-rule:nonzero;fill:rgb(88.627451%,14.117647%,21.568627%);fill-opacity:1;" d="M 23.15625 9.71875 C 22.527344 6.363281 20.417969 4.175781 16.828125 4.175781 L 8.304688 4.175781 L 8.304688 0.402344 C 8.304688 0.117188 7.980469 -0.0429688 7.753906 0.125 L 0.136719 5.835938 C -0.0429688 5.972656 -0.046875 6.242188 0.132812 6.382812 C 8.261719 12.785156 7.722656 12.402344 7.894531 12.402344 C 8.082031 12.402344 8.238281 12.246094 8.238281 12.054688 L 8.238281 8.105469 L 16.828125 8.105469 C 18.90625 8.105469 21.027344 8.679688 22.59375 10.042969 C 22.839844 10.253906 23.21875 10.035156 23.15625 9.71875 Z M 23.15625 9.71875 "/>
<path style=" stroke:none;fill-rule:nonzero;fill:rgb(77.647059%,10.196078%,20%);fill-opacity:1;" d="M 7.894531 10.496094 C 7.722656 10.496094 8.222656 10.851562 1.019531 5.175781 L 0.136719 5.835938 C -0.0429688 5.972656 -0.046875 6.242188 0.132812 6.382812 L 7.679688 12.328125 C 7.90625 12.503906 8.238281 12.34375 8.238281 12.054688 L 8.238281 10.148438 C 8.238281 10.339844 8.082031 10.496094 7.894531 10.496094 Z M 7.894531 10.496094 "/>
<path style=" stroke:none;fill-rule:nonzero;fill:rgb(77.647059%,10.196078%,20%);fill-opacity:1;" d="M 23.15625 9.71875 C 23.082031 9.320312 22.953125 8.785156 22.738281 8.207031 C 22.507812 8.152344 20.777344 6.199219 16.828125 6.199219 L 10.34375 6.199219 C 10.253906 6.21875 10.121094 6.230469 9.933594 6.230469 C 8.683594 6.230469 8.324219 6.917969 8.238281 7.460938 L 8.238281 8.105469 L 16.828125 8.105469 C 18.90625 8.105469 21.027344 8.679688 22.59375 10.042969 C 22.839844 10.253906 23.21875 10.035156 23.15625 9.71875 Z M 23.15625 9.71875 "/>
<path style=" stroke:none;fill-rule:nonzero;fill:rgb(7.843137%,57.647059%,38.431373%);fill-opacity:1;" d="M 13.820312 17.769531 L 7.171875 17.769531 C 4.292969 17.769531 2.339844 16.40625 1.332031 13.910156 C 1.074219 13.785156 0.789062 14.007812 0.84375 14.28125 C 1.472656 17.640625 3.582031 19.824219 7.171875 19.824219 L 15.695312 19.824219 L 15.695312 19.335938 C 15.632812 18.730469 15.300781 17.769531 13.820312 17.769531 Z M 13.820312 17.769531 "/>
</g>
</svg>
